<?xml version="1.0" encoding="utf-8"?>
<!-- Generator: Adobe Illustrator 21.1.0, SVG Export Plug-In . SVG Version: 6.00 Build 0)  -->
<svg version="1.1" id="Layer_1" xmlns="http://www.w3.org/2000/svg" xmlns:xlink="http://www.w3.org/1999/xlink" x="0px" y="0px"
	 viewBox="0 0 113.3 85.5" style="enable-background:new 0 0 113.3 85.5;" xml:space="preserve">
<style type="text/css">
	.st0{fill:#00D3FF;stroke:#00D3FF;stroke-width:0.5;stroke-miterlimit:10;}
	.st1{fill:#7D5B16;}
	.st2{fill:#FCE3CD;}
	.st3{fill:#E2E2E2;}
	.st4{fill:#89FF31;}
	.st5{fill:#00D3FF;}
	.st6{fill:#FF4421;}
	.st7{opacity:0.4;fill:#8C8C8C;}
</style>
<polygon class="st0" points="112.8,34 84.9,50.5 84.9,45.6 105.7,34 84.9,22.5 84.9,17.5 "/>
<rect x="19.8" y="28.2" transform="matrix(0.3642 -0.9313 0.9313 0.3642 2.7153 63.9578)" class="st0" width="56.7" height="3.6"/>
<g>
	<polygon class="st1" points="67.7,60 69.5,56.9 65.8,56.9 	"/>
	<path class="st2" d="M71.5,53.7c0,0-1.1-0.4-1.4-1.4c0,0-2.2,3.8-4.8-0.1c0,0-0.4,1.2-1.3,1.4l1.9,3.2l3.7,0.1L71.5,53.7z"/>
	<path class="st3" d="M72.5,28.9c0,0-0.4,0.7-2.6,0.8c0,0-2,0.3-4.7-1.4c0,0-1.2-0.4-2.6,0.2l-0.1-9.4l10-0.1L72.5,28.9z"/>
	<path class="st4" d="M72.6,51.8l-0.2-23c0,0-0.6,0.7-2.6,0.8L70,52.3c0,0,0.1,0.9,1.4,1.4L72.6,51.8z"/>
	<path class="st5" d="M65.2,52.2c0,0,2.3,4,4.8,0.1l-0.2-22.7c0,0-2,0.4-4.7-1.4L65.2,52.2z"/>
	<path class="st6" d="M62.6,51.7l1.3,1.9c0,0,0.8-0.1,1.3-1.4l-0.1-24c0,0-1.2-0.5-2.6,0.2L62.6,51.7z"/>
	<path class="st1" d="M72.5,28.9c0,0-0.6-3.1-7.2-0.5C65.3,28.3,69.8,31.4,72.5,28.9z"/>
	<polygon class="st7" points="62.4,19.1 62.5,17.8 72.4,17.8 72.4,19 	"/>
	<path class="st3" d="M72.9,17.8L62,17.8c-0.5,0-0.9-0.4-0.9-0.9l0-0.4c0-0.5,0.4-0.9,0.9-0.9l10.9,0.1c0.5,0,0.9,0.4,0.9,0.9l0,0.4
		C73.8,17.5,73.4,17.9,72.9,17.8z"/>
	
		<ellipse transform="matrix(1.472967e-02 -0.9999 0.9999 1.472967e-02 53.221 76.9291)" class="st5" cx="65.6" cy="11.5" rx="1.2" ry="1.2"/>
	
		<ellipse transform="matrix(1.472967e-02 -0.9999 0.9999 1.472967e-02 62.0032 76.1978)" class="st5" cx="69.7" cy="6.6" rx="1" ry="1"/>
	
		<ellipse transform="matrix(1.472967e-02 -0.9999 0.9999 1.472967e-02 65.5698 68.1483)" class="st5" cx="67.4" cy="0.8" rx="0.8" ry="0.8"/>
</g>
<g>
	<path class="st5" d="M19.3,61.9v17.4h-4.1V61.9h-7v-3.2h18.1v3.2H19.3z"/>
	<path class="st5" d="M36.7,79.8c-1.7,4.3-3.4,5.7-6.6,5.7c-0.7,0-1.3,0-1.8-0.1v-2.8c0.4,0.1,0.8,0.1,1.2,0.1c1.4,0,2.3-0.5,3-2.1
		l0.2-0.5l-6.5-16.6h4.6l3.9,12.7l3.9-12.7H43L36.7,79.8z"/>
	<path class="st4" d="M61.4,71c0,5.7-3.5,8.6-7.6,8.6c-1.3,0-2.9-0.3-3.7-0.9l-1-1.6v8h-4.1V63.4H49v2.4l1.2-1.7
		c0.9-0.7,2.5-1.1,4.1-1.1C58.7,63,61.4,66.3,61.4,71z M57.1,71.3c0-3.3-1.5-5.4-4-5.4c-2.3,0-4.1,1.4-4.1,5.3v0.7
		c0,3.6,2.1,4.9,4,4.9C55.3,76.8,57.1,74.9,57.1,71.3z"/>
	<path class="st4" d="M79.4,71.3c0,4.8-3,8.3-8.2,8.3S63,76.1,63,71.3c0-4.8,3-8.3,8.2-8.3S79.4,66.5,79.4,71.3z M75.2,71.3
		c0-3.4-1.5-5.5-4-5.5s-4,2-4,5.5c0,3.4,1.5,5.5,4,5.5S75.2,74.7,75.2,71.3z"/>
	<path class="st6" d="M100,79.2h-4.7l-2.7-12.1L90,79.2h-4.7l-5-15.9h4.6l2.8,12.4l2.6-12.4h4.9l2.7,12.3l2.8-12.4h4.4L100,79.2z"/>
</g>
<polygon class="st0" points="0.5,34 28.4,17.5 28.4,22.4 7.5,34 28.4,45.5 28.4,50.5 "/>
</svg>
